<svg xmlns="http://www.w3.org/2000/svg" xmlns:xlink="http://www.w3.org/1999/xlink">

    <view id="icon-ruler-view" viewBox="0 0 32 10" />
    <view id="icon-plus-minus-view" viewBox="0 11 10 10" />
    <view id="icon-caret-down-view" viewBox="0 21 10 10" />

    <use xlink:href="#icon-ruler" width="32" height="10" x="0" y="0"></use>
    <use xlink:href="#icon-plus-minus" width="10" height="10" x="0" y="11"></use>
    <use xlink:href="#icon-caret-down" width="10" height="10" x="0" y="21"></use>

    <symbol id="icon-caret-down" viewBox="0 0 10 10" fill="#808080">
        <path d="M9.38 3.212 5.29 7.378a.408.408 0 0 1-.447.09.409.409 0 0 1-.132-.09L.62 3.212a.42.42 0 0 1 0-.59.406.406 0 0 1 .579 0L5 6.494l3.801-3.872a.409.409 0 0 1 .446-.09.409.409 0 0 1 .222.225.424.424 0 0 1-.089.455z"/>
    </symbol>

    <symbol id="icon-copy" viewBox="0 0 10 10" fill="currentColor">
        <path d="M9.125.5h-6a.375.375 0 0 0-.375.375V2.75H.875a.375.375 0 0 0-.375.375v6a.375.375 0 0 0 .375.375h6a.375.375 0 0 0 .375-.375V7.25h1.875a.375.375 0 0 0 .375-.375v-6A.375.375 0 0 0 9.125.5zM6.5 8.75H1.25V3.5H6.5zM8.75 6.5h-1.5V3.125a.375.375 0 0 0-.375-.375H3.5v-1.5h5.25z"/>
    </symbol>

    <symbol id="icon-download" viewBox="0 0 10 10" fill="currentColor">
        <path d="M9.5 6.125V8.75a.75.75 0 0 1-.75.75h-7.5a.75.75 0 0 1-.75-.75V6.125a.375.375 0 0 1 .75 0V8.75h7.5V6.125a.375.375 0 0 1 .75 0zm-4.765.265a.375.375 0 0 0 .53 0L7.14 4.515a.375.375 0 1 0-.53-.53L5.375 5.22V.875a.375.375 0 0 0-.75 0V5.22L3.39 3.985a.375.375 0 1 0-.53.53z"/>
    </symbol>

    <symbol id="icon-info" viewBox="0 0 10 10" fill="currentColor">
        <path d="M5 .5a4.5 4.5 0 1 0 0 9 4.5 4.5 0 0 0 0-9zm0 8.308a3.808 3.808 0 1 1 0-7.616 3.808 3.808 0 0 1 0 7.616zm.692-1.731a.346.346 0 0 1-.346.346.692.692 0 0 1-.692-.692V5a.346.346 0 1 1 0-.692.692.692 0 0 1 .692.692v1.73a.346.346 0 0 1 .346.347zm-1.384-3.98a.52.52 0 1 1 1.038 0 .52.52 0 0 1-1.038 0z"/>
    </symbol>

    <symbol id="icon-palette" viewBox="0 0 10 10" fill="currentColor">
        <path d="M8.149 1.845A4.382 4.382 0 0 0 4.999.5h-.045a4.416 4.416 0 0 0-3.152 1.388A4.778 4.778 0 0 0 .5 5.18c0 1.935 1.15 3.558 3.001 4.238a1.334 1.334 0 0 0 1.26-.182c.18-.133.328-.31.43-.514s.155-.431.155-.662c0-.19.073-.374.203-.509s.306-.21.49-.21h1.999c.314 0 .619-.11.865-.313a1.44 1.44 0 0 0 .485-.807A4.88 4.88 0 0 0 9.5 5.14a4.808 4.808 0 0 0-.358-1.789 4.658 4.658 0 0 0-.993-1.507zm.562 4.217a.72.72 0 0 1-.242.402.671.671 0 0 1-.431.156h-2c-.367 0-.719.152-.979.422a1.47 1.47 0 0 0-.405 1.018.743.743 0 0 1-.078.33.712.712 0 0 1-.215.257.677.677 0 0 1-.63.092C2.166 8.164 1.193 6.8 1.193 5.18c0-1.043.396-2.044 1.102-2.786A3.737 3.737 0 0 1 4.96 1.22h.038a3.75 3.75 0 0 1 2.677 1.153 4.056 4.056 0 0 1 1.037 3.69zM5.52 2.84c0 .107-.03.211-.087.3a.524.524 0 0 1-.233.199.5.5 0 0 1-.566-.117.56.56 0 0 1-.113-.589.536.536 0 0 1 .191-.242.505.505 0 0 1 .656.067.551.551 0 0 1 .152.382zM3.615 3.92c0 .107-.03.211-.087.3a.524.524 0 0 1-.233.2.5.5 0 0 1-.566-.118.56.56 0 0 1-.113-.589.536.536 0 0 1 .192-.242.505.505 0 0 1 .655.067.551.551 0 0 1 .152.382zm0 2.52c0 .107-.03.211-.087.3a.524.524 0 0 1-.233.2.5.5 0 0 1-.566-.118.56.56 0 0 1-.113-.589.536.536 0 0 1 .192-.242.505.505 0 0 1 .655.067.551.551 0 0 1 .152.382zm3.808-2.52c0 .107-.03.211-.088.3a.524.524 0 0 1-.233.2.5.5 0 0 1-.565-.118.56.56 0 0 1-.113-.589.536.536 0 0 1 .191-.242.505.505 0 0 1 .656.067.551.551 0 0 1 .152.382z"/>
    </symbol>

    <symbol id="icon-plus-minus" viewBox="0 0 10 10" fill="#808080">
        <path d="M8.36 2.637 2.13 8.898a.346.346 0 0 1-.592-.246c0-.092.037-.18.102-.246l6.23-6.26a.345.345 0 0 1 .592.245c0 .093-.037.181-.102.246zM2.23 4.826a.349.349 0 0 0 .347.348.345.345 0 0 0 .346-.348V3.435h1.385a.345.345 0 0 0 .346-.348.349.349 0 0 0-.346-.348H2.923V1.348A.349.349 0 0 0 2.577 1a.345.345 0 0 0-.346.348v1.391H.846a.345.345 0 0 0-.346.348.349.349 0 0 0 .346.348h1.385zm6.924 2.783H5.692a.345.345 0 0 0-.346.347.349.349 0 0 0 .346.348h3.462a.345.345 0 0 0 .346-.348.349.349 0 0 0-.346-.347z"/>
    </symbol>

    <symbol id="icon-printer" viewBox="0 0 10 10" fill="currentColor">
        <path d="M8.482 2.667h-.59V1.333c0-.088-.033-.173-.093-.235S7.657 1 7.57 1H2.43c-.086 0-.167.035-.228.098s-.094.147-.094.235v1.334h-.59a1.01 1.01 0 0 0-1.017 1V7a.34.34 0 0 0 .094.236c.06.062.142.097.227.097h1.286v1.334c0 .088.034.173.094.235S2.343 9 2.43 9H7.57c.086 0 .167-.035.228-.098s.094-.147.094-.235V7.333h1.286c.085 0 .167-.035.227-.097S9.5 7.088 9.5 7V3.667c0-.552-.456-1-1.018-1zm-5.732-1h4.5v1h-4.5zm4.5 6.666h-4.5v-2h4.5zm1.607-1.666h-.964V6c0-.088-.034-.173-.094-.236s-.142-.097-.228-.097H2.43c-.086 0-.167.035-.228.097s-.094.148-.094.236v.667h-.964v-3c0-.184.168-.334.375-.334h6.964c.207 0 .375.15.375.334zM7.893 4.5a.513.513 0 0 1-.081.278c-.053.082-.129.146-.217.184a.465.465 0 0 1-.525-.108.506.506 0 0 1-.105-.545.497.497 0 0 1 .178-.225.47.47 0 0 1 .609.062.51.51 0 0 1 .14.354z"/>
    </symbol>

    <symbol id="icon-ruler" viewBox="0 0 32 10" fill="#808080">
        <path d="M30.625 6a.375.375 0 0 0 .75 0zm.75 0V0h-.75v6zM28.625 2a.375.375 0 0 0 .75 0zm.75 0V0h-.75v2zM1.375 2a.375.375 0 1 1-.75 0zm-.75 0V0h.75v2zM20.625 2a.375.375 0 0 0 .75 0zm.75 0V0h-.75v2zM9.375 2a.375.375 0 1 1-.75 0zm-.75 0V0h.75v2zM24.625 2a.375.375 0 0 0 .75 0zm.75 0V0h-.75v2zM5.375 2a.375.375 0 1 1-.75 0zm-.75 0V0h.75v2zM16.621 2a.375.375 0 0 0 .75 0zm.75 0V0h-.75v2zM13.375 2a.375.375 0 0 1-.75 0zm-.75 0V0h.75v2zM26.625 3a.375.375 0 0 0 .75 0zm.75 0V0h-.75v3zM3.375 3a.375.375 0 1 1-.75 0zm-.75 0V0h.75v3zM18.625 3a.375.375 0 0 0 .75 0zm.75 0V0h-.75v3zM11.375 3a.375.375 0 0 1-.75 0zm-.75 0V0h.75v3zM22.625 4a.375.375 0 0 0 .75 0zm.75 0V0h-.75v4zM7.375 4a.375.375 0 1 1-.75 0zm-.75 0V0h.75v4zM14.625 5a.375.375 0 0 0 .75 0zm.75 0V0h-.75v5z"/>
    </symbol>

    <symbol id="icon-swap" viewBox="0 0 10 10" fill="currentColor">
        <path d="M9.5 1.25v4.875a.75.75 0 0 1-.75.75H3.655l.485.485a.375.375 0 1 1-.53.53L2.485 6.765a.375.375 0 0 1 0-.53L3.61 5.11a.375.375 0 1 1 .53.53l-.485.485H8.75V1.25H3.5v.375a.375.375 0 1 1-.75 0V1.25A.75.75 0 0 1 3.5.5h5.25a.75.75 0 0 1 .75.75zM6.875 8a.375.375 0 0 0-.375.375v.375H1.25V3.875h5.095l-.485.485a.375.375 0 1 0 .53.53l1.125-1.125a.375.375 0 0 0 0-.53L6.39 2.11a.375.375 0 1 0-.53.53l.485.485H1.25a.75.75 0 0 0-.75.75V8.75a.75.75 0 0 0 .75.75H6.5a.75.75 0 0 0 .75-.75v-.375A.375.375 0 0 0 6.875 8z"/>
    </symbol>

    <symbol id="icon-x" viewBox="0 0 10 10" fill="currentColor">
        <path d="M8.883 8.317a.4.4 0 0 1-.566.566L5 5.565 1.683 8.883a.4.4 0 1 1-.566-.566L4.435 5 1.117 1.683a.4.4 0 1 1 .566-.566L5 4.435l3.317-3.318a.4.4 0 1 1 .566.566L5.565 5l3.318 3.317Z"/>
    </symbol>

</svg>
